{
  "extensionsUsed": [
    "KHR_materials_unlit"
  ],
  "accessors": [
    {
      "bufferView": 0,
      "componentType": 5126,
      "count": 6,
      "type": "VEC3",
      "max": [
        0.5,
        0.5,
        0.0
      ],
      "min": [
        -0.5,
        -0.5,
        0.0
      ]
    },
    {
      "bufferView": 1,
      "componentType": 5126,
      "count": 6,
      "type": "VEC3",
      "max": [
        0.0,
        0.0,
        1.0
      ],
      "min": [
        0.0,
        0.0,
        1.0
      ]
    },
    {
      "bufferView": 2,
      "componentType": 5126,
      "count": 6,
      "type": "VEC3",
      "max": [
        1.0,
        1.0,
        1.0
      ],
      "min": [
        0.0,
        0.0,
        0.0
      ]
    },
    {
      "bufferView": 3,
      "componentType": 5126,
      "count": 6,
      "type": "VEC2",
      "max": [
        1.0,
        1.0
      ],
      "min": [
        0.0,
        0.0
      ]
    }
  ],
  "asset": {
    "generator": "THREE.GLTFExporter",
    "version": "2.0"
  },
  "buffers": [
    {
      "uri": "SimpleModel2.bin",
      "byteLength": 264
    }
  ],
  "bufferViews": [
    {
      "buffer": 0,
      "byteLength": 72,
      "byteStride": 12,
      "target": 34962
    },
    {
      "buffer": 0,
      "byteOffset": 72,
      "byteLength": 72,
      "byteStride": 12,
      "target": 34962
    },
    {
      "buffer": 0,
      "byteOffset": 144,
      "byteLength": 72,
      "byteStride": 12,
      "target": 34962
    },
    {
      "buffer": 0,
      "byteOffset": 216,
      "byteLength": 48,
      "byteStride": 8,
      "target": 34962
    }
  ],
  "materials": [
    {
      "extensions": {
        "KHR_materials_unlit": {}
      },
      "pbrMetallicRoughness": {
        "metallicFactor": 0.0,
        "roughnessFactor": 0.9
      }
    }
  ],
  "meshes": [
    {
      "primitives": [
        {
          "attributes": {
            "POSITION": 0,
            "NORMAL": 1,
            "COLOR_0": 2,
            "TEXCOORD_0": 3
          },
          "material": 0
        }
      ]
    }
  ],
  "nodes": [
    {
      "mesh": 0
    }
  ],
  "scene": 0,
  "scenes": [
    {
      "nodes": [
        0
      ]
    }
  ]
}